<svg id="svg" version="1.1" xmlns="http://www.w3.org/2000/svg" xmlns:xlink="http://www.w3.org/1999/xlink" width="400" height="412.95546558704456" viewBox="0, 0, 400,412.95546558704456"><g id="svgg"><path id="path0" d="M172.283 5.571 C -34.367 48.509,-58.005 321.207,138.358 396.936 C 194.751 418.684,265.649 413.093,320.243 382.593 C 336.611 373.449,336.711 374.601,318.659 364.337 C 196.862 295.088,141.225 136.697,192.113 4.084 C 193.266 1.081,194.247 1.007,172.283 5.571 M170.633 32.571 C 156.797 85.841,159.196 154.662,176.781 208.907 C 197.685 273.391,253.451 344.826,302.429 369.862 C 309.998 373.731,309.242 374.736,293.934 381.144 C 150.226 441.301,-5.697 325.944,17.741 176.808 C 29.975 98.972,94.867 32.796,173.468 18.002 C 174.017 17.898,172.741 24.455,170.633 32.571 M256.659 32.455 C 256.036 34.417,253.689 36.145,250.882 36.706 C 245.385 37.806,245.038 38.974,249.113 42.661 C 251.195 44.546,251.849 46.855,251.320 50.458 C 250.656 54.985,250.922 55.423,253.624 54.244 C 257.280 52.650,261.868 52.646,266.727 54.233 C 270.034 55.314,270.231 54.994,269.403 49.892 C 268.769 45.986,269.262 43.760,271.097 42.237 C 274.834 39.135,274.309 37.777,268.956 36.706 C 266.150 36.145,263.802 34.417,263.179 32.455 C 262.602 30.637,261.135 29.150,259.919 29.150 C 258.703 29.150,257.236 30.637,256.659 32.455 M340.376 104.453 C 339.000 107.472,337.286 108.502,333.638 108.502 C 327.885 108.502,327.473 110.088,332.133 114.305 C 334.712 116.639,335.316 118.633,334.664 122.653 C 333.702 128.580,334.539 129.043,339.692 125.434 C 342.369 123.559,344.055 123.356,346.424 124.624 C 351.815 127.509,353.457 126.678,352.691 121.455 C 352.202 118.125,352.909 115.751,354.936 113.917 C 359.113 110.137,358.618 108.502,353.296 108.502 C 349.963 108.502,348.191 107.388,346.853 104.453 C 345.839 102.227,344.381 100.405,343.615 100.405 C 342.848 100.405,341.390 102.227,340.376 104.453 M283.764 196.610 C 282.689 198.971,280.034 200.936,277.027 201.597 C 271.240 202.868,270.894 204.106,275.227 208.028 C 277.599 210.174,278.142 212.126,277.399 215.838 C 276.515 220.259,276.739 220.640,279.500 219.416 C 283.432 217.672,289.821 217.660,293.704 219.387 C 296.374 220.575,296.600 220.179,295.667 215.934 C 294.864 212.278,295.398 210.430,297.914 208.153 C 302.390 204.102,302.080 202.876,296.253 201.597 C 293.246 200.936,290.591 198.971,289.515 196.610 C 288.538 194.466,287.244 192.713,286.640 192.713 C 286.035 192.713,284.741 194.466,283.764 196.610 M378.947 289.879 C 377.370 293.685,375.926 294.737,372.273 294.737 C 366.772 294.737,366.385 296.364,370.912 300.460 C 373.426 302.736,373.962 304.586,373.160 308.235 C 372.182 312.691,372.374 312.939,375.933 311.820 C 378.036 311.158,380.850 310.617,382.186 310.617 C 383.522 310.617,386.336 311.158,388.440 311.820 C 391.999 312.939,392.191 312.691,391.212 308.235 C 390.411 304.586,390.946 302.736,393.461 300.460 C 397.987 296.364,397.600 294.737,392.099 294.737 C 388.446 294.737,387.002 293.685,385.425 289.879 C 384.318 287.206,382.861 285.020,382.186 285.020 C 381.512 285.020,380.054 287.206,378.947 289.879 " stroke="none" fill="#000000" fill-rule="evenodd"></path></g></svg>